#!OML:ASF E:\acrobat2\Project_11_07_03\Capture day 1\Session 1\Acrobat.ASF
:FULLY-SPECIFIED
:DEGREES
1228
root 4.07495 8.12397 -20.6281 -331.711 -3.78367 3.48964
lowerback 40.6429 3.80873 -1.86698
upperback 14.5972 3.51961 -3.54494
thorax -3.14695 1.80259 -4.05642
lowerneck 5.91942 -1.94914 -0.439842
upperneck -32.1428 -2.50368 1.378
head -11.3598 -1.24946 0.865863
rclavicle -3.65764e-014 7.97127e-014
rhumerus 50.7421 4.25442 -74.091
rradius 33.0814
rwrist 391.148
rhand -35.6428 -64.4605
rfingers 7.12502
rthumb -8.76512 454.259
lclavicle -3.65764e-014 7.97127e-014
lhumerus 49.2511 -12.4225 62.4401
lradius 33.2808
lwrist -12.0334
lhand -49.3814 -37.4498
lfingers 7.12502
lthumb -21.9952 -8.68046
rfemur -122.567 -22.3068 36.76
rtibia 25.1474
rfoot -210.596 5.97036
rtoes -13.0412
lfemur -131.601 43.1457 -37.1848
ltibia 38.0806
lfoot -555.706 13.8013
ltoes 5.87605
1229
root 4.10251 8.19504 -20.6338 -331.544 -3.94707 3.3585
lowerback 40.3002 3.88817 -1.82626
upperback 14.4096 3.63682 -3.51404
thorax -3.24764 1.85254 -4.08014
lowerneck 5.67032 -1.77901 0.0822282
upperneck -32.997 -2.3903 0.588704
head -11.6749 -1.153 0.474505
rclavicle 4.13472e-014 -9.34288e-015
rhumerus 51.4923 4.67918 -72.7276
rradius 31.1389
rwrist 390.042
rhand -35.4017 -64.4649
rfingers 7.12502
rthumb -8.53245 454.272
lclavicle 4.13472e-014 -9.34288e-015
lhumerus 49.7069 -13.084 61.8967
lradius 31.5726
lwrist -11.4059
lhand -49.7105 -37.9824
lfingers 7.12502
lthumb -22.3112 -9.25051
rfemur -122.402 -22.4036 36.6439
rtibia 25.7696
rfoot -210.296 5.67095
rtoes -12.8592
lfemur -131.61 43.1537 -37.3878
ltibia 38.3862
lfoot -555.322 13.6576
ltoes 6.55867
1230
root 4.12747 8.26006 -20.6397 -331.365 -4.10425 3.25744
lowerback 39.9755 3.98277 -1.85049
upperback 14.2037 3.74937 -3.47489
thorax -3.37532 1.8974 -4.06129
lowerneck 5.3851 -1.58969 0.61579
upperneck -33.7951 -2.24523 -0.177992
head -11.9629 -1.04796 0.0773513
rclavicle -9.54166e-015 1.07344e-014
rhumerus 52.1215 5.20168 -71.209
rradius 29.4287
rwrist 388.786
rhand -35.1237 -64.4224
rfingers 7.12502
rthumb -8.26418 454.241
lclavicle -9.54166e-015 1.07344e-014
lhumerus 50.1451 -13.8883 61.0255
lradius 30.0638
lwrist -10.4784
lhand -49.9896 -38.3224
lfingers 7.12502
lthumb -22.5791 -9.6228
rfemur -122.281 -22.4394 36.5943
rtibia 26.34
rfoot -210.093 5.52701
rtoes -12.6863
lfemur -131.612 43.1592 -37.6158
ltibia 38.6866
lfoot -555 13.5996
ltoes 7.2429
1231
root 4.15057 8.31871 -20.6453 -331.186 -4.2566 3.18365
lowerback 39.6826 4.08092 -1.92071
upperback 13.9812 3.84896 -3.43873
thorax -3.532 1.9347 -4.01912
lowerneck 5.07988 -1.37854 1.10281
upperneck -34.545 -2.05372 -0.862337
head -12.2269 -0.92795 -0.293394
rclavicle 5.725e-014 -6.87795e-014
rhumerus 52.6184 5.81071 -69.6089
rradius 27.9669
rwrist 387.44
rhand -34.814 -64.3446
rfingers 7.12502
rthumb -7.96526 454.175
lclavicle 5.725e-014 -6.87795e-014
lhumerus 50.5455 -14.8066 59.9015
lradius 28.7859
lwrist -9.34647
lhand -50.2186 -38.4582
lfingers 7.12502
lthumb -22.7989 -9.78557
rfemur -122.187 -22.4355 36.5757
rtibia 26.8578
rfoot -209.968 5.49257
rtoes -12.5172
lfemur -131.61 43.1597 -37.8647
ltibia 38.9741
lfoot -554.768 13.5709
ltoes 7.55439
1232
root 4.17257 8.37065 -20.6501 -331.021 -4.40006 3.12439
lowerback 39.4434 4.16504 -2.01008
upperback 13.7452 3.9224 -3.41298
thorax -3.72083 1.95956 -3.97154
lowerneck 4.74717 -1.14628 1.45619
upperneck -35.2403 -1.80862 -1.40036
head -12.4593 -0.786269 -0.596959
rclavicle 1.27222e-014 -1.66979e-014
rhumerus 52.9498 6.48432 -68.0899
rradius 26.7767
rwrist 386.147
rhand -34.4869 -64.2445
rfingers 7.12502
rthumb -7.64955 454.086
lclavicle 1.27222e-014 -1.66979e-014
lhumerus 50.9023 -15.7788 58.6166
lradius 27.7093
lwrist -8.15862
lhand -50.426 -38.3874
lfingers 7.12502
lthumb -22.9979 -9.73939
rfemur -122.1 -22.4124 36.5638
rtibia 27.328
rfoot -209.893 5.52924
rtoes -12.4307
lfemur -131.598 43.1581 -38.116
ltibia 39.2362
lfoot -554.646 13.5416
ltoes 7.29262
1233
root 4.19389 8.41567 -20.6542 -330.886 -4.52583 3.06368
lowerback 39.2435 4.24802 -2.10824
upperback 13.517 3.99191 -3.3699
thorax -3.91399 1.98196 -3.90106
lowerneck 4.4136 -0.917648 1.64517
upperneck -35.9081 -1.55063 -1.79076
head -12.6776 -0.636914 -0.819964
rclavicle 8.74653e-015 1.90833e-014
rhumerus 53.1464 7.18154 -66.6537
rradius 25.8175
rwrist 384.94
rhand -34.1591 -64.1398
rfingers 7.12502
rthumb -7.33318 453.993
lclavicle 8.74653e-015 1.90833e-014
lhumerus 51.245 -16.7778 57.2683
lradius 26.7974
lwrist -7.01516
lhand -50.641 -38.1273
lfingers 7.12502
lthumb -23.2042 -9.50511
rfemur -122 -22.3855 36.5487
rtibia 27.7483
rfoot -209.855 5.58645
rtoes -12.4472
lfemur -131.569 43.1589 -38.3418
ltibia 39.4653
lfoot -554.611 13.5286
ltoes 6.69852
1234
root 4.21454 8.45344 -20.6578 -330.787 -4.61893 2.9853
lowerback 39.1024 4.31452 -2.18007
upperback 13.2882 4.04953 -3.31637
thorax -4.126 1.99938 -3.83147
lowerneck 4.09965 -0.693909 1.72285
upperneck -36.5386 -1.28536 -2.08002
head -12.8839 -0.482905 -0.987177
rclavicle -1.51076e-014 2.44505e-014
rhumerus 53.2578 7.89729 -65.2991
rradius 25.0204
rwrist 383.791
rhand -33.8507 -64.0066
rfingers 7.12502
rthumb -7.03542 453.87
lclavicle -1.51076e-014 2.44505e-014
lhumerus 51.5607 -17.7911 55.8669
lradius 26.0477
lwrist -5.92926
lhand -50.8641 -37.7091
lfingers 7.12502
lthumb -23.4182 -9.11403
rfemur -121.884 -22.3612 36.5373
rtibia 28.1161
rfoot -209.848 5.64186
rtoes -12.6013
lfemur -131.517 43.1637 -38.5102
ltibia 39.657
lfoot -554.614 13.5697
ltoes 6.20951
1235
root 4.23459 8.48354 -20.6608 -330.729 -4.67248 2.8748
lowerback 39.0267 4.35908 -2.20581
upperback 13.0553 4.09487 -3.25381
thorax -4.3623 2.01201 -3.77479
lowerneck 3.80812 -0.480797 1.721
upperneck -37.1125 -1.02136 -2.2874
head -13.0714 -0.329771 -1.10917
rclavicle -1.98785e-014 -1.09332e-014
rhumerus 53.3126 8.59627 -64.0955
rradius 24.3284
rwrist 382.744
rhand -33.5695 -63.8258
rfingers 7.12502
rthumb -6.76396 453.698
lclavicle -1.98785e-014 -1.09332e-014
lhumerus 51.8394 -18.8126 54.4218
lradius 25.4538
lwrist -4.87475
lhand -51.063 -37.189
lfingers 7.12502
lthumb -23.609 -8.61842
rfemur -121.746 -22.3457 36.5313
rtibia 28.4304
rfoot -209.854 5.67907
rtoes -12.8968
lfemur -131.441 43.1818 -38.5954
ltibia 39.8057
lfoot -554.613 13.6956
ltoes 6.17722
1236
root 4.25414 8.50558 -20.6631 -330.72 -4.68938 2.73079
lowerback 39.0203 4.38462 -2.18697
upperback 12.8188 4.13082 -3.18044
thorax -4.62351 2.02085 -3.72961
lowerneck 3.54407 -0.277362 1.66754
upperneck -37.616 -0.759449 -2.43591
head -13.2351 -0.178607 -1.19864
rclavicle 3.18055e-014 -3.49861e-014
rhumerus 53.317 9.22819 -63.1484
rradius 23.6951
rwrist 381.901
rhand -33.3085 -63.5943
rfingers 7.12502
rthumb -6.51206 453.474
lclavicle 3.18055e-014 -3.49861e-014
lhumerus 52.0707 -19.8233 52.9895
lradius 24.9898
lwrist -3.84809
lhand -51.2097 -36.6476
lfingers 7.12502
lthumb -23.7497 -8.0952
rfemur -121.579 -22.3512 36.5164
rtibia 28.6681
rfoot -209.882 5.62744
rtoes -13.0835
lfemur -131.338 43.2244 -38.5886
ltibia 39.9067
lfoot -554.583 13.9185
ltoes 6.74141
